# xmcd
#
# Track frame offsets:
#	150
#	15339
#	29473
#	50997
#	69446
#	84604
#	100117
#	114793
#	133967
#	144830
#	159099
#	171757
#	180155
#
# Disc length: 2591 seconds
#
# Revision: 1
# Processed by: cddbd v1.5.2PL0 Copyright (c) Steve Scherf et al.
# Submitted via: audiograbber 1.83.01
#
DISCID=9b0a1d0d
DTITLE=Burrito Brothers - The Muscle Shoes Demo Sessions [CD1]
DYEAR=2001
DGENRE=Country
TTITLE0=Baby Won't You Let Me Be The One
TTITLE1=Crazy Horses
TTITLE2=Mean Street
TTITLE3=You're A Fool To Love Him
TTITLE4=She's Your Lover Now
TTITLE5=Molly
TTITLE6=My Believing Heart
TTITLE7=Shelly's Little Girl
TTITLE8=The Time Of Our Lives
TTITLE9=Carry Me
TTITLE10=I Didn't Take A Chance On You
TTITLE11=I've Got A Hunch
TTITLE12=Moonlight Rider
EXTD=
EXTT0=
EXTT1=
EXTT2=
EXTT3=
EXTT4=
EXTT5=
EXTT6=
EXTT7=
EXTT8=
EXTT9=
EXTT10=
EXTT11=
EXTT12=
PLAYORDER=
